<svg id="Calque_1" data-name="Calque 1" xmlns="http://www.w3.org/2000/svg" viewBox="0 0 1624.12 143.44"><title>Bad-event_logo</title><path d="M306.78,566.72q0,36.13-36.13,36.13H144.19V467.36H270.65q36.14,0,36.13,36.13,0,23.4-15.08,31.61Q306.77,543.32,306.78,566.72Zm-9-63.23q0-27.11-27.1-27.1H153.22v54.2H270.65Q297.74,530.59,297.75,503.49Zm-27.1,90.33q27.09,0,27.1-27.1t-27.1-27.1H153.22v54.2Z" transform="translate(-144.19 -463.38)" style="fill:#ff1300"/><path d="M671,566.72q0,36.13-36.13,36.13H508.39V467.36H634.86q36.12,0,36.13,36.13Zm-36.13,27.1q27.09,0,27.09-27.1V503.49q0-27.11-27.09-27.1H517.43V593.82Z" transform="translate(-144.19 -463.38)" style="fill:#ff1300"/><path d="M734.94,539.62v-9H834.3v9Z" transform="translate(-144.19 -463.38)"/><path d="M907.29,593.82h153.56v9H898.25V467.36h162.6v9H907.29v54.2h144.53v9H907.29Z" transform="translate(-144.19 -463.38)"/><path d="M1155.33,605.11l-85.81-137.75h10.57l75.24,120.86,75.25-120.86h10.56Z" transform="translate(-144.19 -463.38)"/><path d="M1257.58,593.82h153.56v9H1248.55V467.36h162.59v9H1257.58v54.2h144.53v9H1257.58Z" transform="translate(-144.19 -463.38)"/><path d="M1434.09,482.26V602.85h-9V463.38L1578.61,588V467.36h9V606.83Z" transform="translate(-144.19 -463.38)"/><path d="M1768.3,467.36v9h-76.77V602.85h-9V476.39h-76.78v-9Z" transform="translate(-144.19 -463.38)"/><polygon points="339.49 135.75 323.41 135.96 259.17 11.1 198.25 137.62 181.6 137.84 258.74 0.06 339.49 135.75" style="fill:#ff1300"/><path d="M399.28,577.3V511.53h9.31V577.3Zm9.31,17.94v6h-9.31v-6Z" transform="translate(-144.19 -463.38)" style="fill:#ff1300"/></svg>